# xmcd
#
# Track frame offsets: 
#        150
#        16228
#        37833
#        54990
#        70789
#        87766
#        113808
#        133802
#        157712
#
# Disc length: 2345 seconds
#
# Revision: 0
# Processed by: cddbd v1.5.2PL0 Copyright (c) Steve Scherf et al.
# Submitted via: ExactAudioCopy v0.95a5
#
DISCID=61092709
DTITLE=The Butterfield Blues Band - Sometimes I Just Feel Like Smilin'
DYEAR=2002
DGENRE=Blues
TTITLE0=Play On
TTITLE1=1000 Ways
TTITLE2=Pretty Woman
TTITLE3=Little Piece Of Dying
TTITLE4=Song For Lee
TTITLE5=Trainman
TTITLE6=Night Child
TTITLE7=Drowned In My Own Tears
TTITLE8=Blind Leading The Blind
EXTD=Wounded Bird Records WOU 5013\nOriginally released on Elektra Rec
EXTD=ords
EXTT0=
EXTT1=
EXTT2=
EXTT3=
EXTT4=
EXTT5=
EXTT6=
EXTT7=
EXTT8=
PLAYORDER=
